


Upcoming Movies :




1. 2,20 Ka Zamana Khatam (1932)

2. Bholebaba'r TV Keu Dekhe Na (1976)

3. Chele Bholano Chara, Kabita, TV, Sangit, ACK, IJC Diye Ar Katdin ? (1943)

4. Supuri'r Mato Money Kharoch Karo Dadara (1957)

5. Tag Mor Parom Dhrmo, Aposh Kore Mukhe Papos Ghoste Sikechi (1960)

6. Goray Gondogol (2012) - Original DVD RIP

7. Chatrak (2011)

8. Aparajita Tumi (2012) - Original DVD RIP

9. Bedroom (2012) - Original DVD RIP



Screens :


 
http://i.imgur.com/m2xWk.jpg
 
http://i.imgur.com/1My6N.jpg



Extra Screens :


 
http://i.imgur.com/NWuqW.jpg
 
http://i.imgur.com/JwxaP.jpg
 
http://i.imgur.com/A2za3.jpg



Media Info :



Format                           : AVI
Format/Info                      : Audio Video Interleave
File size                        : 699 MiB
Duration                         : 2h 6mn
Overall bit rate                 : 774 Kbps

Video
ID                               : 0
Format                           : MPEG-4 Visual
Format settings, GMC             : No warppoints
Format settings, Matrix          : Custom
Codec ID                         : XVID
Codec ID/Hint                    : XviD
Duration                         : 2h 6mn
Bit rate                         : 658 Kbps
Width                            : 512 pixels
Height                           : 384 pixels
Display aspect ratio             : 4:3
Frame rate                       : 29.970 fps
Color space                      : YUV
Chroma subsampling               : 4:2:0
Bit depth                        : 8 bits
Scan type                        : Progressive
Compression mode                 : Lossy
Bits/(Pixel*Frame)               : 0.112
Stream size                      : 593 MiB (85%)

Audio
ID                               : 1
Format                           : MPEG Audio
Format version                   : Version 1
Format profile                   : Layer 3
Mode                             : Joint stereo
Mode extension                   : MS Stereo
Codec ID                         : 55
Codec ID/Hint                    : MP3
Duration                         : 2h 6mn
Bit rate mode                    : Variable
Bit rate                         : 103 Kbps
Nominal bit rate                 : 128 Kbps
Channel(s)                       : 2 channels
Sampling rate                    : 48.0 KHz
Compression mode                 : Lossy
Delay relative to video          : 48ms
Stream size                      : 92.7 MiB (13%)
Alignment                        : Split accross interleaves





